# xmcd
#
# Track frame offsets:
#       150
#       13531
#       22253
#       30753
#       44294
#       55799
#       66375
#       77382
#       89245
#       95606
#       109166
#       129076
#       140509
#       156541
#       171248
#       181331
#       193293
#       206681
#       217457
#       229135
#
# Disc length: 3195 seconds
#
# Revision: 0
# Processed by: cddbd v1.4PL0 Copyright (c) Steve Scherf et al.
# Submitted via: WhereIsIt 3.26
#
DISCID=250c7914
DTITLE=Various Country - That's Country CD-10
DYEAR=1900
DGENRE=
TTITLE0=jennifer weatherly - in the name of love
TTITLE1=kathy mattea - put yourself in my place
TTITLE2=barbara mandrell - I gave my love to a railroad man
TTITLE3=johnny paycheck - I feel like crying
TTITLE4=carl perkins - standing in the need of love
TTITLE5=jackson stonewall - should I go home
TTITLE6=tammy wynette - fairy tales
TTITLE7=anne murray - last thing on my mind
TTITLE8=jim reeves - I'm beginning to forget you
TTITLE9=barbara fairchild - every flower has to have a seed
TTITLE10=lee greenwood - god bless the usa
TTITLE11=george jones - a house without love is not a home
TTITLE12=mell tills - rose of el paso
TTITLE13=kenny rogers - heed the call
TTITLE14=willie nelson - pride wins again
TTITLE15=bill monroe - can't you hear me calling
TTITLE16=barbare fairchild - teddy bear song
TTITLE17=kitty wells - searching
TTITLE18=waylon jennings - crying
TTITLE19=dolly parton - It wasn't god who made honkey
EXTD=
EXTT0=
EXTT1=
EXTT2=
EXTT3=
EXTT4=
EXTT5=
EXTT6=
EXTT7=
EXTT8=
EXTT9=
EXTT10=
EXTT11=
EXTT12=
EXTT13=
EXTT14=
EXTT15=
EXTT16=
EXTT17=
EXTT18=
EXTT19=
PLAYORDER=
